<?xml version="1.0" encoding="UTF-8" standalone="no"?>
<!-- Generator: Adobe Illustrator 22.1.0, SVG Export Plug-In . SVG Version: 6.00 Build 0)  -->

<svg
   xmlns:dc="http://purl.org/dc/elements/1.1/"
   xmlns:cc="http://creativecommons.org/ns#"
   xmlns:rdf="http://www.w3.org/1999/02/22-rdf-syntax-ns#"
   xmlns:svg="http://www.w3.org/2000/svg"
   xmlns="http://www.w3.org/2000/svg"
   xmlns:sodipodi="http://sodipodi.sourceforge.net/DTD/sodipodi-0.dtd"
   xmlns:inkscape="http://www.inkscape.org/namespaces/inkscape"
   version="1.1"
   id="Ebene_1"
   x="0px"
   y="0px"
   viewBox="0 0 353.20002 144.6"
   xml:space="preserve"
   sodipodi:docname="JACK_Logo_final_RGB_resized.svg"
   width="353.20001"
   height="144.60001"
   inkscape:version="0.92.2 (5c3e80d, 2017-08-06)"><metadata
     id="metadata23"><rdf:RDF><cc:Work
         rdf:about=""><dc:format>image/svg+xml</dc:format><dc:type
           rdf:resource="http://purl.org/dc/dcmitype/StillImage" /><dc:title></dc:title></cc:Work></rdf:RDF></metadata><defs
     id="defs21" /><sodipodi:namedview
     pagecolor="#ffffff"
     bordercolor="#666666"
     borderopacity="1"
     objecttolerance="10"
     gridtolerance="10"
     guidetolerance="10"
     inkscape:pageopacity="0"
     inkscape:pageshadow="2"
     inkscape:window-width="1920"
     inkscape:window-height="1137"
     id="namedview19"
     showgrid="false"
     inkscape:zoom="0.28031832"
     inkscape:cx="176.64999"
     inkscape:cy="72.549988"
     inkscape:window-x="-8"
     inkscape:window-y="-8"
     inkscape:window-maximized="1"
     inkscape:current-layer="Ebene_1" /><style
     type="text/css"
     id="style2">
	.st0{fill:#1BB1D8;}
	.st1{fill:#1A1A18;}
</style><g
     id="g16"
     transform="translate(-121,-348.9)"><path
       class="st0"
       d="m 438,348.9 c -19.9,0 -36.2,16.8 -36.2,37.3 0,8.1 2.6,15.8 7.3,21.7 4.9,6.2 11.7,9.8 18.7,9.8 6.5,0 12.3,-2.7 16.4,-7.5 3.9,-4.6 6.1,-10.9 6.1,-17.7 v -21.3 h -1.1 -22.7 -0.3 v 10.3 h 0.3 12.3 v 11 c 0,8.5 -4.8,14.9 -11.6,14.9 -8.2,0 -15.1,-10.1 -15.1,-21.2 0,-14.9 11.6,-27 25.9,-27 14.5,0 25.9,11.4 25.9,25.9 0,9.1 -4.3,17 -11.1,21.8 v 11.3 c 4,-1.8 7.7,-4.3 10.8,-7.5 6.8,-6.9 10.6,-15.7 10.6,-25.6 0,-20.3 -15.9,-36.2 -36.2,-36.2 z"
       id="path4"
       inkscape:connector-curvature="0"
       style="fill:#1bb1d8" /><polygon
       class="st1"
       points="194.9,438.7 233.7,438.7 228.5,427.2 200,427.2 213.6,397.2 227.2,427.2 232.4,438.7 237.5,450.2 250.2,450.2 219.9,383.2 207.3,383.2 177.1,450.2 189.7,450.2 "
       id="polygon6"
       style="fill:#1a1a18" /><polygon
       class="st1"
       points="343.3,408.7 343.3,383.3 331.8,383.3 331.8,450.2 343.3,450.2 343.3,424.9 368.8,450.4 385,450.4 351.5,416.8 384.8,383.4 368.6,383.4 "
       id="polygon8"
       style="fill:#1a1a18" /><path
       class="st1"
       d="m 169.3,383.2 v 0 0 h -11.5 v 0 h -28.5 v 11.6 h 28.5 v 28.6 c 0,2.2 -0.4,4.4 -1.2,6.4 -0.8,2 -2,3.8 -3.6,5.4 -3.3,3.3 -7.2,4.9 -11.9,4.9 -4.5,0 -8.4,-1.6 -11.7,-4.9 l -8.1,8.1 c 2.6,2.6 5.5,4.6 8.9,6 3.4,1.5 7,2.2 10.9,2.2 3.9,0 7.6,-0.7 11,-2.2 3.4,-1.5 6.4,-3.5 9,-6 2.6,-2.6 4.6,-5.5 6,-8.9 1.5,-3.4 2.2,-7.1 2.2,-11 v -28.6 0 z"
       id="path10"
       inkscape:connector-curvature="0"
       style="fill:#1a1a18" /><path
       class="st1"
       d="m 308.4,433.2 c -2.2,2.2 -4.8,3.9 -7.6,5.1 -2.8,1.1 -5.8,1.7 -9,1.7 -3.1,0 -6.1,-0.6 -8.9,-1.7 -2.8,-1.1 -5.3,-2.8 -7.6,-5.1 -2.2,-2.2 -3.9,-4.8 -5.1,-7.6 -1.2,-2.8 -1.8,-5.8 -1.8,-8.9 0,-3.1 0.6,-6.1 1.8,-8.9 1.2,-2.8 2.9,-5.3 5.1,-7.6 2.2,-2.2 4.8,-3.9 7.6,-5.1 2.8,-1.2 5.8,-1.8 8.9,-1.8 3.2,0 6.2,0.6 9,1.8 2.8,1.2 5.3,2.9 7.6,5.1 l 8.1,-8.1 c -3.2,-3.2 -6.9,-5.7 -11.1,-7.5 -4.2,-1.8 -8.7,-2.7 -13.6,-2.7 -4.8,0 -9.3,0.9 -13.5,2.7 -4.2,1.8 -7.9,4.3 -11.1,7.5 -3.2,3.2 -5.6,6.9 -7.5,11.1 -1.8,4.2 -2.7,8.8 -2.7,13.5 0,4.7 0.9,9.3 2.7,13.5 1.8,4.2 4.3,7.9 7.5,11.1 3.2,3.2 6.9,5.6 11.1,7.5 4.2,1.8 8.8,2.7 13.5,2.7 4.8,0 9.4,-0.9 13.6,-2.7 4.2,-1.8 7.9,-4.3 11.1,-7.5 z"
       id="path12"
       inkscape:connector-curvature="0"
       style="fill:#1a1a18" /><path
       class="st1"
       d="m 132.2,490.8 h -8.9 V 474.2 H 121 v 19 h 11.2 z m 12.6,-4.8 c 0,-3.5 -1.5,-6.3 -5.2,-6.3 -4.2,0 -5.7,3.1 -5.7,6.8 0,4 1.7,6.8 6,6.8 1.8,0 3.5,-0.6 4.8,-2.2 l -1.6,-1.5 c -0.9,1.1 -2.1,1.6 -3.3,1.6 -2.5,0 -3.6,-1.4 -3.7,-3.8 h 8.7 z m -8.6,-0.8 c 0.2,-2.1 1.3,-3.3 3.4,-3.3 2,0 2.9,1.4 2.9,3.3 z m 19.5,-4.7 c -0.7,-0.7 -1.9,-0.8 -2.7,-0.8 -1.1,0 -2.1,0.2 -2.9,0.9 v -0.7 h -2.2 v 13.2 h 2.2 v -8.8 c 0,-1.6 1.4,-2.4 2.9,-2.4 0.5,0 1.1,0.1 1.7,0.5 z m 13.3,4.9 c 0,-3.6 -1.7,-5.7 -5.4,-5.7 -1.1,0 -2.1,0.5 -3,1.2 v -1 h -2.3 v 13.2 h 2.3 V 485 c 0,-1.7 1.2,-3.1 3,-3.1 2.5,0 3.2,1.2 3.2,3.6 v 7.6 h 2.2 z m 13.9,0.6 c 0,-3.5 -1.5,-6.3 -5.2,-6.3 -4.2,0 -5.7,3.1 -5.7,6.8 0,4 1.7,6.8 6,6.8 1.8,0 3.5,-0.6 4.8,-2.2 l -1.6,-1.5 c -0.9,1.1 -2.1,1.6 -3.3,1.6 -2.5,0 -3.6,-1.4 -3.7,-3.8 h 8.7 z m -8.7,-0.8 c 0.2,-2.1 1.3,-3.3 3.4,-3.3 2,0 2.9,1.4 2.9,3.3 z m 22.4,0.2 c 0,-3.6 -1.7,-5.7 -5.4,-5.7 -1.1,0 -2.1,0.5 -3,1.2 v -1 H 186 v 13.2 h 2.3 V 485 c 0,-1.7 1.2,-3.1 3,-3.1 2.5,0 3.2,1.2 3.2,3.6 v 7.6 h 2.2 v -7.7 z m 6.7,6.3 c 0,-0.9 -0.7,-1.7 -1.7,-1.7 -0.9,0 -1.7,0.7 -1.7,1.7 0,0.9 0.7,1.6 1.7,1.6 1,0.1 1.7,-0.7 1.7,-1.6 z m 23.9,-17.5 h -14 v 2.3 h 5.8 v 16.6 h 2.4 v -16.6 h 5.8 z m 12.7,11.8 c 0,-3.5 -1.5,-6.3 -5.2,-6.3 -4.2,0 -5.7,3.1 -5.7,6.8 0,4 1.7,6.8 6,6.8 1.8,0 3.5,-0.6 4.8,-2.2 l -1.6,-1.5 c -0.9,1.1 -2.1,1.6 -3.3,1.6 -2.5,0 -3.6,-1.4 -3.7,-3.8 h 8.7 z m -8.6,-0.8 c 0.2,-2.1 1.3,-3.3 3.4,-3.3 2,0 2.9,1.4 2.9,3.3 z m 21.4,4.1 c 0,-5.2 -7.7,-3.6 -7.7,-5.9 0,-1.2 1.4,-1.4 2.3,-1.4 1.3,0 2.2,0.3 2.9,1.5 l 2,-1 c -1,-2 -2.7,-2.8 -4.9,-2.8 -2.3,0 -4.6,1.1 -4.6,3.7 0,4.8 7.7,2.8 7.7,5.9 0,1.4 -1.6,1.9 -2.7,1.9 -1.7,0 -2.6,-0.4 -3.2,-2 l -2.3,0.4 c 0.7,2.7 2.8,3.9 5.5,3.9 2.4,-0.1 5,-1.5 5,-4.2 z m 7.8,-9.4 h -2 v -3.8 h -2.2 v 3.8 h -1.7 v 2 h 1.7 v 7.9 c 0,2.1 0.9,3.4 3.2,3.4 h 0.6 v -2.3 h -0.6 c -0.6,0 -1.1,-0.2 -1.1,-1.1 v -7.9 h 2 v -2 z m 13.4,6.1 c 0,-3.5 -1.5,-6.3 -5.2,-6.3 -4.2,0 -5.7,3.1 -5.7,6.8 0,4 1.7,6.8 6,6.8 1.8,0 3.5,-0.6 4.8,-2.2 l -1.6,-1.5 c -0.9,1.1 -2.1,1.6 -3.3,1.6 -2.5,0 -3.6,-1.4 -3.7,-3.8 h 8.7 z m -8.6,-0.8 c 0.2,-2.1 1.3,-3.3 3.4,-3.3 2,0 2.9,1.4 2.9,3.3 z m 22.3,0.2 c 0,-3.6 -1.7,-5.7 -5.4,-5.7 -1.1,0 -2.1,0.5 -3,1.2 v -1 H 277 v 13.2 h 2.3 V 485 c 0,-1.7 1.2,-3.1 3,-3.1 2.5,0 3.2,1.2 3.2,3.6 v 7.6 h 2.2 v -7.7 z m 6.8,6.3 c 0,-0.9 -0.7,-1.7 -1.7,-1.7 -1,0 -1.7,0.7 -1.7,1.7 0,0.9 0.7,1.6 1.7,1.6 1,0 1.7,-0.7 1.7,-1.6 z m 24.9,-12.1 c 0,-1.9 -0.8,-3.6 -2.3,-4.5 -1.3,-0.8 -2.9,-0.9 -4.2,-0.9 h -7.1 v 19 h 2.4 V 485 h 4.7 c 1.3,0 2.9,-0.1 4.2,-0.9 1.5,-0.9 2.3,-2.6 2.3,-4.5 z m -2.4,0 c 0,1.2 -0.5,2.1 -1.2,2.5 -0.7,0.5 -1.8,0.6 -2.9,0.6 h -4.7 v -6.2 h 4.7 c 1.1,0 2.1,0.1 2.9,0.5 0.8,0.5 1.2,1.4 1.2,2.6 z m 12.9,0.9 c -0.7,-0.7 -1.9,-0.8 -2.7,-0.8 -1.1,0 -2.1,0.2 -2.9,0.9 v -0.7 H 322 v 13.2 h 2.2 v -8.8 c 0,-1.6 1.4,-2.4 2.9,-2.4 0.5,0 1.1,0.1 1.7,0.5 z m 12.2,-3.6 c 0,-0.8 -0.7,-1.5 -1.5,-1.5 -0.8,0 -1.5,0.7 -1.5,1.5 0,0.8 0.7,1.5 1.5,1.5 0.8,0 1.5,-0.7 1.5,-1.5 z m -5.7,0 c 0,-0.8 -0.7,-1.5 -1.5,-1.5 -0.8,0 -1.5,0.7 -1.5,1.5 0,0.8 0.7,1.5 1.5,1.5 0.8,0 1.5,-0.7 1.5,-1.5 z m 6.6,3 h -2.2 v 8.7 c 0,1.6 -1.4,2.6 -3,2.6 -2.5,0 -3.2,-1.3 -3.2,-3.8 v -7.5 h -2.3 v 7.6 c 0,3.9 1.7,5.8 5.4,5.8 1,0 2.1,-0.3 3,-0.9 v 0.7 h 2.2 v -13.2 z m 9.8,-5.7 c -2.2,0 -3.6,0.7 -4.4,2 -0.7,1.1 -0.8,2.6 -0.8,3.7 h -1.2 v 2 h 1.2 v 11.3 h 2.2 v -11.3 h 2.6 v -2 h -2.6 c 0,-1.2 0.1,-2.1 0.7,-2.7 0.4,-0.5 1.2,-0.8 2.3,-0.8 z m 12.7,11.8 c 0,-3.5 -1.5,-6.3 -5.2,-6.3 -4.2,0 -5.7,3.1 -5.7,6.8 0,4 1.7,6.8 6,6.8 1.8,0 3.5,-0.6 4.8,-2.2 l -1.6,-1.5 c -0.9,1.1 -2.1,1.6 -3.3,1.6 -2.5,0 -3.6,-1.4 -3.7,-3.8 h 8.7 z m -8.6,-0.8 c 0.2,-2.1 1.3,-3.3 3.4,-3.3 2,0 2.9,1.4 2.9,3.3 z m 22.4,0.2 c 0,-3.6 -1.7,-5.7 -5.4,-5.7 -1.1,0 -2.1,0.5 -3,1.2 v -1 h -2.3 v 13.2 h 2.3 V 485 c 0,-1.7 1.2,-3.1 3,-3.1 2.5,0 3.2,1.2 3.2,3.6 v 7.6 h 2.2 z m 6.7,6.3 c 0,-0.9 -0.7,-1.7 -1.7,-1.7 -1,0 -1.7,0.7 -1.7,1.7 0,0.9 0.7,1.6 1.7,1.6 1,0 1.7,-0.7 1.7,-1.6 z"
       id="path14"
       inkscape:connector-curvature="0"
       style="fill:#1a1a18" /></g></svg>