<?xml version="1.0" encoding="UTF-8" standalone="no"?>
<!-- Generator: Adobe Illustrator 22.1.0, SVG Export Plug-In . SVG Version: 6.00 Build 0)  -->

<svg
   xmlns:dc="http://purl.org/dc/elements/1.1/"
   xmlns:cc="http://creativecommons.org/ns#"
   xmlns:rdf="http://www.w3.org/1999/02/22-rdf-syntax-ns#"
   xmlns:svg="http://www.w3.org/2000/svg"
   xmlns="http://www.w3.org/2000/svg"
   xmlns:sodipodi="http://sodipodi.sourceforge.net/DTD/sodipodi-0.dtd"
   xmlns:inkscape="http://www.inkscape.org/namespaces/inkscape"
   version="1.1"
   id="Ebene_1"
   x="0px"
   y="0px"
   viewBox="0 0 1122.52 433.70396"
   xml:space="preserve"
   sodipodi:docname="UDE_Logo_claim_RGB.svg"
   width="1122.52"
   height="433.70398"
   inkscape:version="0.92.2 (5c3e80d, 2017-08-06)"><metadata
     id="metadata23"><rdf:RDF><cc:Work
         rdf:about=""><dc:format>image/svg+xml</dc:format><dc:type
           rdf:resource="http://purl.org/dc/dcmitype/StillImage" /><dc:title></dc:title></cc:Work></rdf:RDF></metadata><defs
     id="defs21" /><sodipodi:namedview
     pagecolor="#ffffff"
     bordercolor="#666666"
     borderopacity="1"
     objecttolerance="10"
     gridtolerance="10"
     guidetolerance="10"
     inkscape:pageopacity="0"
     inkscape:pageshadow="2"
     inkscape:window-width="828"
     inkscape:window-height="480"
     id="namedview19"
     showgrid="false"
     inkscape:zoom="0.28031832"
     inkscape:cx="345.95407"
     inkscape:cy="216.85199"
     inkscape:window-x="391"
     inkscape:window-y="122"
     inkscape:window-maximized="0"
     inkscape:current-layer="Ebene_1" /><style
     type="text/css"
     id="style2">
	.st0{fill:#1BB1D8;}
	.st1{fill:#FFFFFF;}
</style><g
     id="g16"
     transform="translate(263.60999,-204.09802)"><path
       class="st0"
       d="m 438,348.9 c -19.9,0 -36.2,16.8 -36.2,37.3 0,8.1 2.6,15.8 7.3,21.7 4.9,6.2 11.7,9.8 18.7,9.8 6.5,0 12.3,-2.7 16.4,-7.5 3.9,-4.6 6.1,-10.9 6.1,-17.7 v -21.3 h -1.1 -22.7 -0.3 v 10.3 h 0.3 12.3 v 11 c 0,8.5 -4.8,14.9 -11.6,14.9 -8.2,0 -15.1,-10.1 -15.1,-21.2 0,-14.9 11.6,-27 25.9,-27 14.5,0 25.9,11.4 25.9,25.9 0,9.1 -4.3,17 -11.1,21.8 v 11.3 c 4,-1.8 7.7,-4.3 10.8,-7.5 6.8,-6.9 10.6,-15.7 10.6,-25.6 0,-20.3 -15.9,-36.2 -36.2,-36.2 z"
       id="path4"
       inkscape:connector-curvature="0"
       style="fill:#1bb1d8" /><polygon
       class="st1"
       points="213.6,397.2 227.2,427.2 232.4,438.7 237.5,450.2 250.2,450.2 219.9,383.2 207.3,383.2 177.1,450.2 189.7,450.2 194.9,438.7 233.7,438.7 228.5,427.2 200,427.2 "
       id="polygon6"
       style="fill:#ffffff" /><polygon
       class="st1"
       points="343.3,450.2 343.3,424.9 368.8,450.4 385,450.4 351.5,416.8 384.8,383.4 368.6,383.4 343.3,408.7 343.3,383.3 331.8,383.3 331.8,450.2 "
       id="polygon8"
       style="fill:#ffffff" /><path
       class="st1"
       d="m 169.3,383.2 v 0 0 h -11.5 v 0 h -28.5 v 11.6 h 28.5 v 28.6 c 0,2.2 -0.4,4.4 -1.2,6.4 -0.8,2 -2,3.8 -3.6,5.4 -3.3,3.3 -7.2,4.9 -11.9,4.9 -4.5,0 -8.4,-1.6 -11.7,-4.9 l -8.1,8.1 c 2.6,2.6 5.5,4.6 8.9,6 3.4,1.5 7,2.2 10.9,2.2 3.9,0 7.6,-0.7 11,-2.2 3.4,-1.5 6.4,-3.5 9,-6 2.6,-2.6 4.6,-5.5 6,-8.9 1.5,-3.4 2.2,-7.1 2.2,-11 v -28.6 0 z"
       id="path10"
       inkscape:connector-curvature="0"
       style="fill:#ffffff" /><path
       class="st1"
       d="m 308.4,433.2 c -2.2,2.2 -4.8,3.9 -7.6,5.1 -2.8,1.1 -5.8,1.7 -9,1.7 -3.1,0 -6.1,-0.6 -8.9,-1.7 -2.8,-1.1 -5.3,-2.8 -7.6,-5.1 -2.2,-2.2 -3.9,-4.8 -5.1,-7.6 -1.2,-2.8 -1.8,-5.8 -1.8,-8.9 0,-3.1 0.6,-6.1 1.8,-8.9 1.2,-2.8 2.9,-5.3 5.1,-7.6 2.2,-2.2 4.8,-3.9 7.6,-5.1 2.8,-1.2 5.8,-1.8 8.9,-1.8 3.2,0 6.2,0.6 9,1.8 2.8,1.2 5.3,2.9 7.6,5.1 l 8.1,-8.1 c -3.2,-3.2 -6.9,-5.7 -11.1,-7.5 -4.2,-1.8 -8.7,-2.7 -13.6,-2.7 -4.8,0 -9.3,0.9 -13.5,2.7 -4.2,1.8 -7.9,4.3 -11.1,7.5 -3.2,3.2 -5.6,6.9 -7.5,11.1 -1.8,4.2 -2.7,8.8 -2.7,13.5 0,4.7 0.9,9.3 2.7,13.5 1.8,4.2 4.3,7.9 7.5,11.1 3.2,3.2 6.9,5.6 11.1,7.5 4.2,1.8 8.8,2.7 13.5,2.7 4.8,0 9.4,-0.9 13.6,-2.7 4.2,-1.8 7.9,-4.3 11.1,-7.5 z"
       id="path12"
       inkscape:connector-curvature="0"
       style="fill:#ffffff" /><path
       class="st1"
       d="m 132.2,490.8 h -8.9 V 474.2 H 121 v 19 h 11.2 z m 12.6,-4.8 c 0,-3.5 -1.5,-6.3 -5.2,-6.3 -4.2,0 -5.7,3.1 -5.7,6.8 0,4 1.7,6.8 6,6.8 1.8,0 3.5,-0.6 4.8,-2.2 l -1.6,-1.5 c -0.9,1.1 -2.1,1.6 -3.3,1.6 -2.5,0 -3.6,-1.4 -3.7,-3.8 h 8.7 z m -8.6,-0.8 c 0.2,-2.1 1.3,-3.3 3.4,-3.3 2,0 2.9,1.4 2.9,3.3 z m 19.5,-4.7 c -0.7,-0.7 -1.9,-0.8 -2.7,-0.8 -1.1,0 -2.1,0.2 -2.9,0.9 v -0.7 h -2.2 v 13.2 h 2.2 v -8.8 c 0,-1.6 1.4,-2.4 2.9,-2.4 0.5,0 1.1,0.1 1.7,0.5 z m 13.3,4.9 c 0,-3.6 -1.7,-5.7 -5.4,-5.7 -1.1,0 -2.1,0.5 -3,1.2 v -1 h -2.3 v 13.2 h 2.3 V 485 c 0,-1.7 1.2,-3.1 3,-3.1 2.5,0 3.2,1.2 3.2,3.6 v 7.6 h 2.2 z m 13.9,0.6 c 0,-3.5 -1.5,-6.3 -5.2,-6.3 -4.2,0 -5.7,3.1 -5.7,6.8 0,4 1.7,6.8 6,6.8 1.8,0 3.5,-0.6 4.8,-2.2 l -1.6,-1.5 c -0.9,1.1 -2.1,1.6 -3.3,1.6 -2.5,0 -3.6,-1.4 -3.7,-3.8 h 8.7 z m -8.7,-0.8 c 0.2,-2.1 1.3,-3.3 3.4,-3.3 2,0 2.9,1.4 2.9,3.3 z m 22.4,0.2 c 0,-3.6 -1.7,-5.7 -5.4,-5.7 -1.1,0 -2.1,0.5 -3,1.2 v -1 H 186 v 13.2 h 2.3 V 485 c 0,-1.7 1.2,-3.1 3,-3.1 2.5,0 3.2,1.2 3.2,3.6 v 7.6 h 2.2 v -7.7 z m 6.7,6.3 c 0,-0.9 -0.7,-1.7 -1.7,-1.7 -0.9,0 -1.7,0.7 -1.7,1.7 0,0.9 0.7,1.6 1.7,1.6 1,0.1 1.7,-0.7 1.7,-1.6 z m 23.9,-17.5 h -14 v 2.3 h 5.8 v 16.6 h 2.4 v -16.6 h 5.8 z m 12.7,11.8 c 0,-3.5 -1.5,-6.3 -5.2,-6.3 -4.2,0 -5.7,3.1 -5.7,6.8 0,4 1.7,6.8 6,6.8 1.8,0 3.5,-0.6 4.8,-2.2 l -1.6,-1.5 c -0.9,1.1 -2.1,1.6 -3.3,1.6 -2.5,0 -3.6,-1.4 -3.7,-3.8 h 8.7 z m -8.6,-0.8 c 0.2,-2.1 1.3,-3.3 3.4,-3.3 2,0 2.9,1.4 2.9,3.3 z m 21.4,4.1 c 0,-5.2 -7.7,-3.6 -7.7,-5.9 0,-1.2 1.4,-1.4 2.3,-1.4 1.3,0 2.2,0.3 2.9,1.5 l 2,-1 c -1,-2 -2.7,-2.8 -4.9,-2.8 -2.3,0 -4.6,1.1 -4.6,3.7 0,4.8 7.7,2.8 7.7,5.9 0,1.4 -1.6,1.9 -2.7,1.9 -1.7,0 -2.6,-0.4 -3.2,-2 l -2.3,0.4 c 0.7,2.7 2.8,3.9 5.5,3.9 2.4,-0.1 5,-1.5 5,-4.2 z m 7.8,-9.4 h -2 v -3.8 h -2.2 v 3.8 h -1.7 v 2 h 1.7 v 7.9 c 0,2.1 0.9,3.4 3.2,3.4 h 0.6 v -2.3 h -0.6 c -0.6,0 -1.1,-0.2 -1.1,-1.1 v -7.9 h 2 v -2 z m 13.4,6.1 c 0,-3.5 -1.5,-6.3 -5.2,-6.3 -4.2,0 -5.7,3.1 -5.7,6.8 0,4 1.7,6.8 6,6.8 1.8,0 3.5,-0.6 4.8,-2.2 l -1.6,-1.5 c -0.9,1.1 -2.1,1.6 -3.3,1.6 -2.5,0 -3.6,-1.4 -3.7,-3.8 h 8.7 z m -8.6,-0.8 c 0.2,-2.1 1.3,-3.3 3.4,-3.3 2,0 2.9,1.4 2.9,3.3 z m 22.3,0.2 c 0,-3.6 -1.7,-5.7 -5.4,-5.7 -1.1,0 -2.1,0.5 -3,1.2 v -1 H 277 v 13.2 h 2.3 V 485 c 0,-1.7 1.2,-3.1 3,-3.1 2.5,0 3.2,1.2 3.2,3.6 v 7.6 h 2.2 v -7.7 z m 6.8,6.3 c 0,-0.9 -0.7,-1.7 -1.7,-1.7 -1,0 -1.7,0.7 -1.7,1.7 0,0.9 0.7,1.6 1.7,1.6 1,0 1.7,-0.7 1.7,-1.6 z m 24.9,-12.1 c 0,-1.9 -0.8,-3.6 -2.3,-4.5 -1.3,-0.8 -2.9,-0.9 -4.2,-0.9 h -7.1 v 19 h 2.4 V 485 h 4.7 c 1.3,0 2.9,-0.1 4.2,-0.9 1.5,-0.9 2.3,-2.6 2.3,-4.5 z m -2.4,0 c 0,1.2 -0.5,2.1 -1.2,2.5 -0.7,0.5 -1.8,0.6 -2.9,0.6 h -4.7 v -6.2 h 4.7 c 1.1,0 2.1,0.1 2.9,0.5 0.8,0.5 1.2,1.4 1.2,2.6 z m 12.9,0.9 c -0.7,-0.7 -1.9,-0.8 -2.7,-0.8 -1.1,0 -2.1,0.2 -2.9,0.9 v -0.7 H 322 v 13.2 h 2.2 v -8.8 c 0,-1.6 1.4,-2.4 2.9,-2.4 0.5,0 1.1,0.1 1.7,0.5 z m 12.2,-3.6 c 0,-0.8 -0.7,-1.5 -1.5,-1.5 -0.8,0 -1.5,0.7 -1.5,1.5 0,0.8 0.7,1.5 1.5,1.5 0.8,0 1.5,-0.7 1.5,-1.5 z m -5.7,0 c 0,-0.8 -0.7,-1.5 -1.5,-1.5 -0.8,0 -1.5,0.7 -1.5,1.5 0,0.8 0.7,1.5 1.5,1.5 0.8,0 1.5,-0.7 1.5,-1.5 z m 6.6,3 h -2.2 v 8.7 c 0,1.6 -1.4,2.6 -3,2.6 -2.5,0 -3.2,-1.3 -3.2,-3.8 v -7.5 h -2.3 v 7.6 c 0,3.9 1.7,5.8 5.4,5.8 1,0 2.1,-0.3 3,-0.9 v 0.7 h 2.2 v -13.2 z m 9.8,-5.7 c -2.2,0 -3.6,0.7 -4.4,2 -0.7,1.1 -0.8,2.6 -0.8,3.7 h -1.2 v 2 h 1.2 v 11.3 h 2.2 v -11.3 h 2.6 v -2 h -2.6 c 0,-1.2 0.1,-2.1 0.7,-2.7 0.4,-0.5 1.2,-0.8 2.3,-0.8 z m 12.7,11.8 c 0,-3.5 -1.5,-6.3 -5.2,-6.3 -4.2,0 -5.7,3.1 -5.7,6.8 0,4 1.7,6.8 6,6.8 1.8,0 3.5,-0.6 4.8,-2.2 l -1.6,-1.5 c -0.9,1.1 -2.1,1.6 -3.3,1.6 -2.5,0 -3.6,-1.4 -3.7,-3.8 h 8.7 z m -8.6,-0.8 c 0.2,-2.1 1.3,-3.3 3.4,-3.3 2,0 2.9,1.4 2.9,3.3 z m 22.4,0.2 c 0,-3.6 -1.7,-5.7 -5.4,-5.7 -1.1,0 -2.1,0.5 -3,1.2 v -1 h -2.3 v 13.2 h 2.3 V 485 c 0,-1.7 1.2,-3.1 3,-3.1 2.5,0 3.2,1.2 3.2,3.6 v 7.6 h 2.2 z m 6.7,6.3 c 0,-0.9 -0.7,-1.7 -1.7,-1.7 -1,0 -1.7,0.7 -1.7,1.7 0,0.9 0.7,1.6 1.7,1.6 1,0 1.7,-0.7 1.7,-1.6 z"
       id="path14"
       inkscape:connector-curvature="0"
       style="fill:#ffffff" /></g><g
     transform="matrix(1.3333333,0,0,-1.3333333,0,433.70399)"
     inkscape:label="ink_ext_XXXXXX"
     id="g33"><g
       transform="scale(0.1)"
       id="g35"><path
         inkscape:connector-curvature="0"
         id="path37"
         style="fill:#2d4fa3;fill-opacity:1;fill-rule:nonzero;stroke:none"
         d="m 590.719,504.57 c 0,52.461 -10.938,77.211 -45.883,77.211 -86.656,0 -133.25,-175.492 -133.25,-294.179 0,-51.7 10.93,-76.45 46.594,-76.45 86.656,0 132.539,174.727 132.539,293.418 z M 448.004,134.691 c -85.949,0 -134.734,52.399 -134.734,150.739 0,170.351 75.011,372.789 242.492,372.789 C 640.219,658.219 689,605.082 689,506.762 689,337.129 614.734,134.691 448.004,134.691" /><path
         inkscape:connector-curvature="0"
         id="path39"
         style="fill:#2d4fa3;fill-opacity:1;fill-rule:nonzero;stroke:none"
         d="M 828.137,141.992 C 814.297,73.5391 787.344,0 688.328,0 654.82,0 623.516,4.37891 623.516,12.3789 c 0,2.8828 0.718,5.0625 1.445,7.9922 l 15.297,51 c 1.472,3.5898 2.933,5.0781 5.117,5.0781 2.164,0 14.551,-3.6601 29.84,-3.6601 49.508,0 58.254,33.4809 67.719,80.0819 L 799.73,441.23 h -51.718 c -4.36,0 -10.176,0.739 -10.176,7.309 0,2.91 0.75,5.801 1.441,8.711 l 8.735,40.82 c 0.758,6.5 2.191,8.692 10.215,8.692 h 53.882 l 8.746,45.898 c 10.922,58.961 29.848,116.5 129.594,116.5 30.574,0 73.541,-9.488 73.541,-20.41 0,-2.211 -0.73,-3.629 -1.46,-5.82 l -17.46,-50.981 c -2.18,-4.367 -4.37,-5.051 -5.836,-5.051 -7.281,0 -21.836,9.434 -43.691,9.434 -37.855,0 -42.953,-28.383 -49.508,-58.242 l -6.539,-31.328 h 82.992 c 6.559,0 8.746,-3.633 8.746,-6.52 0,-2.933 -1.464,-5.863 -2.187,-8.75 l -13.113,-42.23 c -2.188,-6.543 -2.911,-8.032 -10.192,-8.032 H 887.105 L 828.137,141.992" /><path
         inkscape:connector-curvature="0"
         id="path41"
         style="fill:#2d4fa3;fill-opacity:1;fill-rule:nonzero;stroke:none"
         d="M 1084.46,141.992 C 1070.63,73.5391 1043.67,0 944.656,0 911.16,0 879.844,4.37891 879.844,12.3789 c 0,2.8828 0.719,5.0625 1.465,7.9922 l 15.285,51 c 1.465,3.5898 2.902,5.0781 5.086,5.0781 2.187,0 14.566,-3.6601 29.859,-3.6601 49.539,0 58.258,33.4809 67.723,80.0819 l 56.788,288.359 h -51.68 c -4.374,0 -10.214,0.739 -10.214,7.309 0,2.91 0.727,5.801 1.473,8.711 l 8.741,40.82 c 0.7,6.5 2.18,8.692 10.19,8.692 h 53.88 l 8.72,45.898 c 10.92,58.961 29.86,116.5 129.62,116.5 30.59,0 73.55,-9.488 73.55,-20.41 0,-2.211 -0.73,-3.629 -1.47,-5.82 l -17.48,-50.981 c -2.17,-4.367 -4.35,-5.051 -5.82,-5.051 -7.27,0 -21.83,9.434 -43.67,9.434 -37.88,0 -42.97,-28.383 -49.53,-58.242 l -6.55,-31.328 h 83 c 6.57,0 8.75,-3.633 8.75,-6.52 0,-2.933 -1.46,-5.863 -2.18,-8.75 l -13.12,-42.23 c -2.18,-6.543 -2.91,-8.032 -10.19,-8.032 h -78.64 l -58.97,-299.238" /><path
         inkscape:connector-curvature="0"
         id="path43"
         style="fill:#2d4fa3;fill-opacity:1;fill-rule:nonzero;stroke:none"
         d="m 1326.21,350.941 c 31.32,0 128.89,0 128.89,66.969 0,18.93 -11.65,35.719 -33.51,35.719 -68.44,0 -88.83,-75.758 -95.38,-102.688 z M 1495.14,186.41 c 0.73,-2.191 2.19,-4.379 2.19,-6.558 0,-9.5 -67.72,-45.161 -141.99,-45.161 -87.36,0 -126.7,54.59 -126.7,135.43 0,145.621 93.94,249.059 206.07,249.059 68.46,0 107.76,-37.93 107.76,-96.149 0,-137.601 -184.94,-137.601 -226.44,-137.601 0,-21.848 -5.83,-77.91 62.61,-77.91 42.95,0 81.55,29.101 92.48,29.101 3.63,0 4.38,-2.172 5.82,-5.09 l 18.2,-45.121" /><path
         inkscape:connector-curvature="0"
         id="path45"
         style="fill:#2d4fa3;fill-opacity:1;fill-rule:nonzero;stroke:none"
         d="m 1835.23,155.801 c -1.44,-8.012 -2.9,-8.731 -10.19,-8.731 h -67.71 c -5.82,0 -9.47,1.489 -9.47,7.289 0,2.18 0.73,5.082 0.73,8 l 48.05,207.52 c 3.64,14.562 6.55,29.113 6.55,44.422 0,16.738 -6.55,28.418 -21.84,28.418 -66.98,0 -91.01,-90.317 -102.66,-142.739 l -31.3,-144.179 c -1.47,-8.012 -2.93,-8.731 -10.21,-8.731 h -67.72 c -5.83,0 -9.46,1.489 -9.46,7.289 0,2.18 0.75,5.082 0.75,8 l 49.47,219.18 c 4.38,18.191 8.75,36.371 8.75,59.691 0,21.86 -6.55,32.032 -6.55,45.161 0,5.101 5.11,6.558 8.73,7.988 l 58.28,22.59 c 2.18,0.711 3.62,2.211 7.26,2.211 8.02,0 14.57,-32.789 14.57,-73.59 19.66,23.301 61.17,73.59 120.86,73.59 47.34,0 73.55,-36.418 73.55,-76.461 0,-18.93 -2.91,-38.598 -7.28,-56.84 l -53.16,-230.078" /><path
         inkscape:connector-curvature="0"
         id="path47"
         style="fill:#2d4fa3;fill-opacity:1;fill-rule:nonzero;stroke:none"
         d="m 2302.77,587.582 c -22.57,0 -40.79,18.219 -40.79,40.777 0,21.86 18.22,40.801 40.79,40.801 21.84,0 40.77,-18.941 40.77,-40.801 0,-22.558 -18.93,-40.777 -40.77,-40.777 z M 2233.6,161.641 c -1.48,-6.582 -2.19,-14.571 -9.47,-14.571 h -38.6 c -4.37,0 -7.28,1.489 -7.28,3.672 0,2.867 0.72,6.488 1.46,8.699 l 62.62,294.899 h -57.52 c -5.1,0 -5.84,2.191 -5.84,5.109 0,1.453 0,2.883 0.74,5.832 l 5.1,23.278 c 1.46,5.113 3.65,8 8.74,8 h 96.85 c 10.18,0 11.63,-0.7 11.63,-5.817 0,-4.351 -2.19,-10.172 -3.62,-18.183 L 2233.6,161.641" /><path
         inkscape:connector-curvature="0"
         id="path49"
         style="fill:#2d4fa3;fill-opacity:1;fill-rule:nonzero;stroke:none"
         d="m 2759.32,397.559 c 2.18,9.492 4.38,19.671 4.38,29.121 0,20.41 -10.92,31.289 -32.78,31.289 -76.46,0 -99.01,-76.43 -116.5,-155.059 l -32.76,-148.551 c -1.47,-5.117 -2.91,-7.289 -8.75,-7.289 h -37.86 c -3.64,0 -5.82,1.489 -5.82,4.36 0,1.441 0,3.629 0.74,5.109 l 50.97,241.02 c 2.18,9.492 4.37,19.671 4.37,29.121 0,20.41 -10.93,31.289 -32.8,31.289 -76.45,0 -104.82,-96.84 -115.02,-144.879 l -33.52,-158.731 c -1.44,-5.117 -2.88,-7.289 -8.72,-7.289 h -37.88 c -3.62,0 -5.81,1.489 -5.81,4.36 0,1.441 0,3.629 0.75,5.109 l 51.66,244.633 c 2.93,15.32 5.12,31.308 5.12,41.547 0,14.531 -2.93,29.101 -5.81,43.672 0,2.91 3.62,5.101 6.53,5.82 l 24.77,10.918 c 4.37,1.441 7.28,3.633 10.18,3.633 8,0 13.12,-18.203 13.12,-36.371 0,-14.61 -1.47,-23.301 -1.47,-32.789 h 1.47 c 24.02,34.957 58.98,69.16 116.5,69.16 34.95,0 61.16,-19.633 61.16,-69.16 h 1.44 c 25.49,34.957 60.46,69.16 115.8,69.16 37.86,0 66.25,-19.633 66.25,-58.223 0,-17.5 -3.64,-34.238 -7.28,-50.98 l -51.72,-243.2 c -1.43,-5.117 -2.9,-7.289 -8.71,-7.289 h -37.88 c -3.64,0 -5.81,1.489 -5.81,4.36 0,1.441 0,3.629 0.74,5.109 l 50.95,241.02" /><path
         inkscape:connector-curvature="0"
         id="path51"
         style="fill:#2d4fa3;fill-opacity:1;fill-rule:nonzero;stroke:none"
         d="m 3209.39,195.859 c 44.41,0 83.01,18.911 107.76,50.2 47.32,54.66 75.72,190.093 75.72,260 0,85.191 -46.61,90.992 -96.1,90.992 h -46.61 L 3165.7,195.859 Z m 74.28,450 c 83.71,0 168.91,-2.929 168.91,-140.55 0,-71.34 -21.85,-172.547 -64.81,-254.86 C 3346.26,171.84 3277.83,147.07 3191.19,147.07 h -86.67 c -3.62,0 -5.82,1.489 -5.82,5.121 l 103.4,486.368 c 1.46,5.82 4.36,7.3 8.74,7.3 h 72.83" /><path
         inkscape:connector-curvature="0"
         id="path53"
         style="fill:#2d4fa3;fill-opacity:1;fill-rule:nonzero;stroke:none"
         d="m 3714.77,411.371 c 0,30.598 -17.49,50.27 -53.16,50.27 -82.99,0 -106.3,-94.692 -114.31,-130.371 40.04,0 167.47,0 167.47,80.101 z m 21.84,-219.16 c 0.74,-1.43 1.46,-2.172 1.46,-3.609 0,-8.75 -64.08,-51.723 -134.71,-51.723 -82.27,0 -117.95,52.402 -117.95,133.242 0,123.809 75.72,236.641 184.22,236.641 64.79,0 96.09,-39.321 96.09,-93.203 0,-126.68 -160.17,-126.68 -224.26,-127.407 0,-6.562 -0.72,-12.402 -0.72,-18.222 0,-51.66 20.39,-80.078 67.71,-80.078 64.81,0 93.92,34.929 104.14,34.929 2.9,0 5.09,-2.152 6.53,-4.32 l 17.49,-26.25" /><path
         inkscape:connector-curvature="0"
         id="path55"
         style="fill:#2d4fa3;fill-opacity:1;fill-rule:nonzero;stroke:none"
         d="m 3859.69,401.172 c 2.91,15.32 5.09,31.308 5.09,41.547 0,14.531 -2.9,29.101 -5.81,43.672 0,2.91 3.63,5.101 6.55,5.82 l 26.21,10.918 c 4.37,1.441 7.28,3.633 10.22,3.633 5.81,0 13.8,-21.821 13.8,-44.43 0,-14.543 -2.19,-26.18 -2.19,-32.742 h 1.47 c 26.95,37.851 66.99,77.172 131.78,77.172 37.89,0 66.28,-19.633 66.28,-58.223 0,-17.5 -3.63,-34.238 -7.27,-50.98 l -51.69,-243.2 c -1.48,-5.117 -2.94,-7.289 -8.76,-7.289 h -37.86 c -3.64,0 -5.84,1.489 -5.84,4.36 0,1.441 0,3.629 0.73,5.109 l 50.97,241.02 c 2.19,9.492 4.37,19.671 4.37,29.121 0,20.41 -10.93,31.289 -32.76,31.289 -78.62,0 -121.59,-96.84 -131.78,-144.879 l -33.51,-158.731 c -1.47,-5.117 -2.91,-7.289 -8.72,-7.289 h -37.88 c -3.65,0 -5.84,1.489 -5.84,4.36 0,1.441 0,3.629 0.74,5.109 l 51.7,244.633" /><path
         inkscape:connector-curvature="0"
         id="path57"
         style="fill:#2d4fa3;fill-opacity:1;fill-rule:nonzero;stroke:none"
         d="m 4218.71,154.359 c -1.45,-5.117 -2.91,-7.289 -8.72,-7.289 h -37.89 c -3.62,0 -5.82,1.489 -5.82,4.36 0,1.441 0,3.629 0.75,5.109 l 105.56,495.863 c 0.73,4.379 2.19,10.2 7.29,11.637 l 36.43,8.742 c 1.43,0 3.62,1.438 6.52,1.438 5.1,0 5.84,-2.168 5.1,-5.797 l -67.72,-316.02 1.47,-1.461 176.19,156.559 c 1.47,0.719 3.65,2.93 5.83,2.93 1.49,0 4.39,-2.211 5.85,-2.93 l 24.74,-20.371 c 1.46,-1.5 2.93,-2.93 2.93,-4.367 0,-2.953 -1.47,-4.383 -2.93,-5.121 L 4313.37,342.949 4422.6,168.191 c 0.72,-1.449 2.19,-2.902 2.19,-4.382 0,-2.168 -2.91,-5.079 -5.09,-5.817 l -32.05,-19.672 c -2.19,-1.441 -4.38,-2.191 -5.82,-2.191 -2.18,0 -4.37,2.191 -5.11,3.68 l -118.69,200.953 -39.32,-186.403" /><path
         inkscape:connector-curvature="0"
         id="path59"
         style="fill:#2d4fa3;fill-opacity:1;fill-rule:nonzero;stroke:none"
         d="m 4700.04,411.371 c 0,30.598 -17.46,50.27 -53.16,50.27 -82.99,0 -106.29,-94.692 -114.33,-130.371 40.06,0 167.49,0 167.49,80.101 z m 21.84,-219.16 c 0.74,-1.43 1.46,-2.172 1.46,-3.609 0,-8.75 -64.06,-51.723 -134.69,-51.723 -82.28,0 -117.98,52.402 -117.98,133.242 0,123.809 75.75,236.641 184.22,236.641 64.82,0 96.12,-39.321 96.12,-93.203 0,-126.68 -160.17,-126.68 -224.26,-127.407 0,-6.562 -0.74,-12.402 -0.74,-18.222 0,-51.66 20.41,-80.078 67.7,-80.078 64.84,0 93.96,34.929 104.15,34.929 2.92,0 5.1,-2.152 6.55,-4.32 l 17.47,-26.25" /><path
         inkscape:connector-curvature="0"
         id="path61"
         style="fill:#2d4fa3;fill-opacity:1;fill-rule:nonzero;stroke:none"
         d="m 4844.98,401.172 c 2.91,15.32 5.09,31.308 5.09,41.547 0,14.531 -2.9,29.101 -5.81,43.672 0,2.91 3.63,5.101 6.55,5.82 l 26.21,10.918 c 4.38,1.441 7.28,3.633 10.21,3.633 5.82,0 13.81,-21.821 13.81,-44.43 0,-14.543 -2.18,-26.18 -2.18,-32.742 h 1.45 c 26.96,37.851 67,77.172 131.79,77.172 37.88,0 66.28,-19.633 66.28,-58.223 0,-17.5 -3.63,-34.238 -7.29,-50.98 l -51.69,-243.2 c -1.46,-5.117 -2.94,-7.289 -8.74,-7.289 h -37.86 c -3.66,0 -5.84,1.489 -5.84,4.36 0,1.441 0,3.629 0.73,5.109 l 50.98,241.02 c 2.18,9.492 4.36,19.671 4.36,29.121 0,20.41 -10.93,31.289 -32.77,31.289 -78.61,0 -121.59,-96.84 -131.77,-144.879 l -33.51,-158.731 c -1.46,-5.117 -2.91,-7.289 -8.72,-7.289 h -37.89 c -3.64,0 -5.83,1.489 -5.83,4.36 0,1.441 0,3.629 0.74,5.109 l 51.7,244.633" /><path
         inkscape:connector-curvature="0"
         id="path63"
         style="fill:#2d4fa3;fill-opacity:1;fill-rule:nonzero;stroke:none"
         d="M 0,1158.05 H 8418.9 V 3252.78 H 0 V 1158.05" /><path
         inkscape:connector-curvature="0"
         id="path65"
         style="fill:#ffffff;fill-opacity:1;fill-rule:nonzero;stroke:none"
         d="m 572.828,1981.07 c -27.59,-18.51 -66.074,-21.91 -118.273,-21.91 H 333.383 V 2379 h 121.172 c 52.199,0 90.187,-2.38 118.273,-21.27 33.856,-22.96 54.012,-66.6 54.012,-124 v -128.66 c 0,-57.42 -20.156,-101.64 -54.012,-124 m -40.195,232.54 c 0,60.9 -23.473,84.39 -84.391,84.39 H 426.41 v -257.89 h 21.832 c 60.258,0 84.391,24.15 84.391,85.06 z m 554.757,-264.79 c -101.702,0 -150.495,48.29 -150.495,146.53 V 2379 h 93.075 v -262.46 c 0,-60.84 9.18,-86.68 57.42,-86.68 48.76,0 57.4,26.36 57.4,86.68 V 2379 h 93.01 v -283.65 c 0,-98.82 -48.25,-146.53 -150.41,-146.53 m 482.32,10.34 -0.6,419.84 h 93.07 l 0.53,-419.84 z m 534.6,356.15 c -28.73,0 -46.48,-16.11 -46.48,-38.52 0,-21.29 16.66,-36.82 50.5,-51.7 42.51,-18.37 79.86,-30.43 105.09,-50.52 28.11,-22.43 44.22,-56.33 44.22,-97.08 0,-76.44 -57.36,-129.15 -144.71,-129.15 -66.05,0 -116.52,28.73 -151.64,84.92 l 72.41,51.17 c 24.13,-39.69 47.72,-57.99 81.57,-57.99 32.17,0 52.82,18.89 52.82,44.12 0,22.96 -14.94,40.24 -46.47,53.46 -41.38,17.19 -77.58,29.34 -103.96,49.87 -29.31,23.1 -44.24,55.17 -44.24,94.17 0,74.12 52.21,121.84 136.1,121.84 60.83,0 107.4,-25.2 137.24,-74.08 l -66.63,-47.76 c -22.42,31.72 -47.11,47.25 -75.82,47.25 m 670.77,-135.09 c 44.77,-14.31 67.13,-47.57 67.13,-100.48 0,-82.12 -48.2,-120.58 -147,-120.58 H 2553.39 V 2379 h 138.97 c 94.73,0 141.25,-33.98 141.25,-106.86 0,-45.39 -17.74,-73.47 -58.53,-91.92 m -91.89,133.88 h -36.76 v -103.99 h 36.76 c 37.89,0 56.23,17.3 56.23,52.23 0,36.21 -17.81,51.76 -56.23,51.76 m 3.46,-169.34 h -40.22 v -117.15 h 40.22 c 41.87,0 62.03,18.36 62.03,58.45 0,40.22 -20.16,58.7 -62.03,58.7 m 610.43,-195.94 c -101.72,0 -150.51,48.29 -150.51,146.53 V 2379 h 93.01 v -262.46 c 0,-60.84 9.25,-86.68 57.5,-86.68 48.75,0 57.41,26.36 57.41,86.68 V 2379 h 92.98 v -283.65 c 0,-98.82 -48.25,-146.53 -150.39,-146.53 m 686.79,192.39 91.8,-182.05 h -102.69 l -81.57,171.11 h -31.04 v -171.11 h -92.98 V 2379 h 105.57 c 56.3,0 98.82,-1.74 129.23,-17.87 37.89,-20.04 58.58,-57.42 58.58,-106.13 0,-56.33 -27.02,-96.55 -76.9,-113.79 m -97.69,166.56 h -25.81 v -110.23 h 25.81 c 56.31,0 81.51,8 81.51,55.07 0,47.17 -25.2,55.16 -81.51,55.16 m 610.36,-198.07 v 71.74 h 143.04 v -227.46 h -41.31 l -13.29,33.99 c -24.67,-27.67 -52.2,-39.63 -90.66,-39.63 -42.43,0 -78.7,14.22 -102.24,39.06 -34.38,35.49 -37.23,79.7 -37.23,144.62 v 74.12 c 0,64.27 2.85,109.17 37.23,144.71 24.15,25.25 60.33,39.05 105.04,39.05 85.11,0 138.45,-48.22 142.46,-129.18 h -94.17 c -2.27,31.5 -19.01,48.14 -48.29,48.14 -45.91,0 -48.16,-29.18 -48.16,-86.61 v -105.71 c 0,-56.85 2.25,-86.68 48.16,-86.68 33.95,0 48.29,20.04 48.29,63.66 v 16.18 h -48.87" /><path
         inkscape:connector-curvature="0"
         id="path67"
         style="fill:#ffffff;fill-opacity:1;fill-rule:nonzero;stroke:none"
         d="M 911.488,1620.94 V 1540 H 616.305 v 419.8 h 283.148 v -81.03 H 709.324 v -75.28 h 129.801 v -80.9 H 709.324 v -101.65 z m 390.452,275.09 c -28.7,0 -46.47,-16.09 -46.47,-38.51 0,-21.23 16.61,-36.68 50.52,-51.71 42.51,-18.31 79.84,-30.34 105.09,-50.53 28.09,-22.29 44.21,-56.27 44.21,-96.94 0,-76.45 -57.43,-129.22 -144.74,-129.22 -65.98,0 -116.54,28.62 -151.6,84.96 l 72.39,51.1 c 24.13,-39.58 47.67,-58.02 81.58,-58.02 32.08,0 52.8,18.93 52.8,44.2 0,22.95 -14.97,40.22 -46.51,53.38 -41.39,17.27 -77.59,29.27 -103.91,50.02 -29.28,22.95 -44.29,55.12 -44.29,94.15 0,74.13 52.29,121.71 136.08,121.71 60.92,0 107.4,-25.19 137.32,-74.06 l -66.62,-47.65 c -22.43,31.61 -47.13,47.12 -75.85,47.12 m 540.37,0 c -28.72,0 -46.55,-16.09 -46.55,-38.51 0,-21.23 16.74,-36.68 50.58,-51.71 42.49,-18.31 79.85,-30.34 105.13,-50.53 28.11,-22.29 44.15,-56.27 44.15,-96.94 0,-76.45 -57.42,-129.22 -144.64,-129.22 -66.11,0 -116.58,28.62 -151.64,84.96 l 72.35,51.1 c 24.07,-39.58 47.68,-58.02 81.51,-58.02 32.22,0 52.87,18.93 52.87,44.2 0,22.95 -14.93,40.22 -46.53,53.38 -41.38,17.27 -77.51,29.27 -103.95,50.02 -29.26,22.95 -44.16,55.12 -44.16,94.15 0,74.13 52.2,121.71 136.04,121.71 60.9,0 107.36,-25.19 137.21,-74.06 l -66.57,-47.65 c -22.42,31.61 -47.09,47.12 -75.8,47.12 m 721.84,-275.09 V 1540 h -295.13 v 419.8 h 283.04 v -81.03 h -190.08 v -75.28 h 129.87 v -80.9 h -129.87 v -101.65 z m 505.87,-80.94 -147.53,283.65 1.7,-283.65 h -80.91 v 419.8 h 89.52 l 134.4,-255.06 -1.72,255.06 h 80.95 V 1540 h -76.41" /><path
         inkscape:connector-curvature="0"
         id="path69"
         style="fill:#ffffff;fill-opacity:1;fill-rule:nonzero;stroke:none"
         d="m 445.641,2633.45 c -75.192,0 -111.215,35.67 -111.215,108.35 v 209.74 h 68.765 V 2757.4 c 0,-44.99 6.727,-64.07 42.45,-64.07 36.156,0 42.488,19.55 42.488,64.07 v 194.14 h 68.766 V 2741.8 c 0,-73.07 -35.625,-108.35 -111.254,-108.35 m 366.515,7.56 -109.125,209.86 1.25,-209.86 h -59.847 v 310.53 h 66.207 l 99.437,-188.59 -1.316,188.59 h 59.937 v -310.53 z m 150.332,0 -0.394,310.53 h 68.836 l 0.39,-310.53 z m 298.582,0 h -72.62 l -95.09,310.53 h 68.78 l 62.82,-217.03 62.42,217.03 h 68.86 z m 367.35,59.94 v -59.94 h -218.24 v 310.53 h 209.33 v -59.87 h -140.49 v -55.63 h 95.93 v -59.89 h -95.93 v -75.2 z m 228.98,74.76 67.95,-134.7 h -76.02 L 1789,2767.65 h -22.97 v -126.64 h -68.78 v 310.53 h 78.14 c 41.66,0 73.07,-1.29 95.61,-13.16 27.97,-14.89 43.27,-42.47 43.27,-78.55 0,-41.65 -19.98,-71.28 -56.87,-84.12 m -72.22,123.17 h -19.15 v -81.52 h 19.15 c 41.67,0 60.32,5.92 60.32,40.7 0,34.94 -18.65,40.82 -60.32,40.82 m 283.26,5.54 c -21.23,0 -34.39,-11.92 -34.39,-28.49 0,-15.66 12.34,-27.18 37.44,-38.16 31.33,-13.54 58.97,-22.56 77.67,-37.38 20.8,-16.57 32.7,-41.64 32.7,-71.8 0,-56.53 -42.45,-95.59 -107.02,-95.59 -48.83,0 -86.25,21.27 -112.2,62.91 l 53.53,37.77 c 17.88,-29.33 35.32,-42.86 60.33,-42.86 23.81,0 39.15,13.98 39.15,32.61 0,17.03 -11.03,29.85 -34.45,39.52 -30.58,12.76 -57.38,21.66 -76.83,36.98 -21.66,17.03 -32.74,40.82 -32.74,69.68 0,54.78 38.68,90.03 100.63,90.03 45.03,0 79.43,-18.69 101.53,-54.77 l -49.25,-35.26 c -16.63,23.39 -34.84,34.81 -56.1,34.81 m 188.61,-263.41 -0.44,310.53 h 68.77 l 0.47,-310.53 z m 274.4,250.66 v -250.66 h -68.86 v 250.66 H 2384 v 59.87 h 225.92 v -59.87 z m 241.61,135.84 h 52.22 v -55.99 h -52.22 z m -75.18,0 h 51.82 v -55.99 h -51.82 z m 104.03,-75.97 89.23,-310.53 h -66.66 l -16.64,62.03 h -93.4 l -16.16,-62.03 h -66.72 l 89.25,310.53 z m -7.19,-195.37 -33.14,140.19 -33.53,-140.19 z m 265.85,135.5 v -250.66 h -68.77 v 250.66 h -78.61 v 59.87 h 225.97 v -59.87 h -78.59" /></g></g></svg>